<svg width="47" height="47" viewBox="0 0 47 47" fill="none" xmlns="http://www.w3.org/2000/svg">
<path d="M46.5 23.25C46.5 23.25 44.52 23.625 40.8075 24C37.095 24.375 31.6575 24.75 24.75 24.75C24.75 38.565 23.25 46.5 23.25 46.5C23.25 46.5 22.875 44.52 22.5 40.8075C22.125 37.095 21.75 31.6575 21.75 24.75C7.935 24.75 0 23.25 0 23.25C0 23.25 1.98 22.875 5.6925 22.5C9.405 22.125 14.8425 21.75 21.75 21.75C21.75 7.935 23.25 0 23.25 0C23.25 0 24.75 7.935 24.75 21.75C38.565 21.75 46.5 23.25 46.5 23.25Z" fill="#FF98D9"/>
<path d="M24.75 20.25C29.25 14.25 33.75 12.75 33.75 12.75C31.8166 16.1801 29.2752 19.2298 26.25 21.75M20.25 21.75C14.25 17.25 12.75 12.75 12.75 12.75C16.1801 14.6834 19.2298 17.2248 21.75 20.25M21.75 26.25C17.25 32.25 12.75 33.75 12.75 33.75C14.6834 30.3199 17.2248 27.2702 20.25 24.75M26.25 24.75C32.25 29.25 33.75 33.75 33.75 33.75C30.3199 31.8166 27.2702 29.2752 24.75 26.25" fill="#FF98D9"/>
<path d="M23.25 27C25.3211 27 27 25.3211 27 23.25C27 21.1789 25.3211 19.5 23.25 19.5C21.1789 19.5 19.5 21.1789 19.5 23.25C19.5 25.3211 21.1789 27 23.25 27Z" fill="#FF98D9"/>
</svg>
